<svg width="32" height="32" viewBox="0 0 32 32" fill="none" xmlns="http://www.w3.org/2000/svg">
<path d="M2.61624 25.2437C1.72362 24.3511 1.72362 22.9038 2.61624 22.0112L18.7787 5.84876C19.6713 4.95613 21.1185 4.95613 22.0112 5.84876V5.84876C22.9038 6.74138 22.9038 8.18862 22.0112 9.08124L5.84873 25.2437C4.9561 26.1363 3.50887 26.1363 2.61624 25.2437V25.2437Z" fill="#068438"/>
<path d="M9.0004 25.1629C8.10777 24.2702 8.10777 22.823 9.0004 21.9304L25.1628 5.76794C26.0555 4.87532 27.5027 4.87532 28.3953 5.76795V5.76795C29.288 6.66057 29.288 8.10781 28.3953 9.00043L12.2329 25.1629C11.3403 26.0555 9.89303 26.0555 9.0004 25.1629V25.1629Z" fill="#35F26A"/>
</svg>
