<svg width="48" height="48" viewBox="0 0 48 48" fill="none" xmlns="http://www.w3.org/2000/svg">
<path d="M28 17.5998C28 17.3998 28.0667 17.2081 28.2 17.0248C28.3333 16.8415 28.4833 16.7165 28.65 16.6498C29.65 16.2831 30.675 15.9998 31.725 15.7998C32.775 15.5998 33.8667 15.4998 35 15.4998C35.7333 15.4998 36.45 15.5415 37.15 15.6248C37.85 15.7082 38.5333 15.8332 39.2 15.9998C39.4 16.0665 39.5833 16.1915 39.75 16.3748C39.9167 16.5582 40 16.7665 40 16.9998C40 17.3665 39.875 17.6498 39.625 17.8498C39.375 18.0498 39.0667 18.0998 38.7 17.9998C38.1333 17.8331 37.5417 17.7081 36.925 17.6248C36.3083 17.5415 35.6667 17.4998 35 17.4998C34.0333 17.4998 33.1 17.5915 32.2 17.7748C31.3 17.9581 30.4167 18.2332 29.55 18.5998C29.0833 18.7665 28.7083 18.7582 28.425 18.5748C28.1417 18.3915 28 18.0665 28 17.5998ZM28 28.5998C28 28.3998 28.0667 28.1998 28.2 27.9998C28.3333 27.7998 28.4833 27.6665 28.65 27.5998C29.65 27.2332 30.675 26.9581 31.725 26.7748C32.775 26.5915 33.8667 26.4998 35 26.4998C35.7333 26.4998 36.45 26.5415 37.15 26.6248C37.85 26.7082 38.5333 26.8332 39.2 26.9998C39.4 27.0665 39.5833 27.1915 39.75 27.3748C39.9167 27.5581 40 27.7665 40 27.9998C40 28.3665 39.875 28.6498 39.625 28.8498C39.375 29.0498 39.0667 29.0998 38.7 28.9998C38.1333 28.8332 37.5417 28.7082 36.925 28.6248C36.3083 28.5415 35.6667 28.4998 35 28.4998C34.0333 28.4998 33.1 28.5832 32.2 28.7498C31.3 28.9165 30.4167 29.1831 29.55 29.5498C29.0833 29.7165 28.7083 29.7165 28.425 29.5498C28.1417 29.3832 28 29.0665 28 28.5998ZM28 23.0998C28 22.8998 28.0667 22.7081 28.2 22.5248C28.3333 22.3415 28.4833 22.2165 28.65 22.1498C29.65 21.7831 30.675 21.4998 31.725 21.2998C32.775 21.0998 33.8667 20.9998 35 20.9998C35.7333 20.9998 36.45 21.0415 37.15 21.1248C37.85 21.2081 38.5333 21.3331 39.2 21.4998C39.4 21.5665 39.5833 21.6915 39.75 21.8748C39.9167 22.0582 40 22.2665 40 22.4998C40 22.8665 39.875 23.1498 39.625 23.3498C39.375 23.5498 39.0667 23.5998 38.7 23.4998C38.1333 23.3331 37.5417 23.2081 36.925 23.1248C36.3083 23.0415 35.6667 22.9998 35 22.9998C34.0333 22.9998 33.1 23.0915 32.2 23.2748C31.3 23.4581 30.4167 23.7332 29.55 24.0998C29.0833 24.2665 28.7083 24.2582 28.425 24.0748C28.1417 23.8915 28 23.5665 28 23.0998ZM12.4 32.9998C14.2 32.9998 15.9417 33.2082 17.625 33.6248C19.3083 34.0415 20.9667 34.6665 22.6 35.4998V14.1498C21.1 13.1498 19.475 12.3748 17.725 11.8248C15.975 11.2748 14.2 10.9998 12.4 10.9998C11.1333 10.9998 9.89167 11.1582 8.675 11.4748C7.45833 11.7915 6.23333 12.1831 5 12.6498V34.3498C6.03333 33.8831 7.20833 33.5415 8.525 33.3248C9.84167 33.1082 11.1333 32.9998 12.4 32.9998ZM25.6 35.4998C27.2667 34.6665 28.9 34.0415 30.5 33.6248C32.1 33.2082 33.8 32.9998 35.6 32.9998C36.8667 32.9998 38.175 33.0998 39.525 33.2998C40.875 33.4998 42.0333 33.7665 43 34.0998V12.6498C41.8667 12.0831 40.6667 11.6665 39.4 11.3998C38.1333 11.1331 36.8667 10.9998 35.6 10.9998C33.8 10.9998 32.0583 11.2748 30.375 11.8248C28.6917 12.3748 27.1 13.1498 25.6 14.1498V35.4998ZM24.1 39.4498C23.8333 39.4498 23.5917 39.4248 23.375 39.3748C23.1583 39.3248 22.9667 39.2331 22.8 39.0998C21.2333 38.1331 19.5667 37.3831 17.8 36.8498C16.0333 36.3165 14.2333 36.0498 12.4 36.0498C11.1667 36.0498 9.96667 36.1998 8.8 36.4998C7.63333 36.7998 6.46667 37.1665 5.3 37.5998C4.53333 37.9665 3.79167 37.9165 3.075 37.4498C2.35833 36.9832 2 36.3165 2 35.4498V12.2998C2 11.7998 2.11667 11.3415 2.35 10.9248C2.58333 10.5082 2.93333 10.1832 3.4 9.94982C4.8 9.28315 6.25833 8.79148 7.775 8.47482C9.29167 8.15815 10.8333 7.99982 12.4 7.99982C14.5 7.99982 16.5417 8.28315 18.525 8.84982C20.5083 9.41648 22.3667 10.2832 24.1 11.4498C25.8 10.2832 27.625 9.41648 29.575 8.84982C31.525 8.28315 33.5333 7.99982 35.6 7.99982C37.1667 7.99982 38.7 8.15815 40.2 8.47482C41.7 8.79148 43.15 9.28315 44.55 9.94982C45.0167 10.1832 45.375 10.5082 45.625 10.9248C45.875 11.3415 46 11.7998 46 12.2998V35.4498C46 36.3832 45.625 37.0915 44.875 37.5748C44.125 38.0582 43.3833 38.0665 42.65 37.5998C41.5167 37.1331 40.3667 36.7581 39.2 36.4748C38.0333 36.1915 36.8333 36.0498 35.6 36.0498C33.8 36.0498 32.0333 36.3165 30.3 36.8498C28.5667 37.3831 26.9333 38.1331 25.4 39.0998C25.2333 39.2331 25.0417 39.3248 24.825 39.3748C24.6083 39.4248 24.3667 39.4498 24.1 39.4498Z" fill="url(#paint0_linear_9_545)"/>
<defs>
<linearGradient id="paint0_linear_9_545" x1="-11.2" y1="7.21357" x2="-11.2" y2="38.6636" gradientUnits="userSpaceOnUse">
<stop stop-color="#35F26A"/>
<stop offset="1" stop-color="#068438"/>
</linearGradient>
</defs>
</svg>
