<svg width="127" height="127" viewBox="0 0 127 127" fill="none" xmlns="http://www.w3.org/2000/svg">
<path d="M2.12132 101.116C0.949747 99.9447 0.949748 98.0452 2.12132 96.8737L82.7315 16.2635C83.9031 15.0919 85.8026 15.0919 86.9741 16.2635L96.8736 26.163C98.0452 27.3346 98.0452 29.2341 96.8736 30.4056L16.2635 111.016C15.0919 112.187 13.1924 112.187 12.0208 111.016L2.12132 101.116Z" fill="#068438"/>
<path d="M30.052 100.763C28.8805 99.5912 28.8805 97.6917 30.052 96.5202L110.662 15.91C111.834 14.7384 113.733 14.7384 114.905 15.91L124.804 25.8095C125.976 26.9811 125.976 28.8806 124.804 30.0521L44.1942 110.662C43.0226 111.834 41.1231 111.834 39.9515 110.662L30.052 100.763Z" fill="#35F26A"/>
</svg>
