<svg width="48" height="48" viewBox="0 0 48 48" fill="none" xmlns="http://www.w3.org/2000/svg">
<path d="M24 43.9998C21.2 43.9998 18.5833 43.4748 16.15 42.4248C13.7167 41.3748 11.6 39.9498 9.8 38.1498C8 36.3498 6.58333 34.2248 5.55 31.7748C4.51667 29.3248 4 26.6998 4 23.8998C4 21.0998 4.51667 18.4915 5.55 16.0748C6.58333 13.6582 8 11.5498 9.8 9.74982C11.6 7.94982 13.7167 6.54148 16.15 5.52482C18.5833 4.50815 21.2 3.99982 24 3.99982C26.8 3.99982 29.4167 4.50815 31.85 5.52482C34.2833 6.54148 36.4 7.94982 38.2 9.74982C40 11.5498 41.4167 13.6582 42.45 16.0748C43.4833 18.4915 44 21.0998 44 23.8998C44 26.6998 43.4833 29.3248 42.45 31.7748C41.4167 34.2248 40 36.3498 38.2 38.1498C36.4 39.9498 34.2833 41.3748 31.85 42.4248C29.4167 43.4748 26.8 43.9998 24 43.9998ZM24 41.0998C25.1667 39.8998 26.1417 38.5248 26.925 36.9748C27.7083 35.4248 28.35 33.5832 28.85 31.4498H19.2C19.6667 33.4498 20.2917 35.2498 21.075 36.8498C21.8583 38.4498 22.8333 39.8665 24 41.0998ZM19.75 40.4998C18.9167 39.2332 18.2 37.8665 17.6 36.3998C17 34.9332 16.5 33.2832 16.1 31.4498H8.6C9.86667 33.8165 11.3333 35.6748 13 37.0248C14.6667 38.3748 16.9167 39.5331 19.75 40.4998ZM28.3 40.4498C30.7 39.6832 32.8583 38.5331 34.775 36.9998C36.6917 35.4665 38.2333 33.6165 39.4 31.4498H31.95C31.5167 33.2498 31.0083 34.8831 30.425 36.3498C29.8417 37.8165 29.1333 39.1832 28.3 40.4498ZM7.6 28.4498H15.55C15.45 27.5498 15.3917 26.7415 15.375 26.0248C15.3583 25.3081 15.35 24.5998 15.35 23.8998C15.35 23.0665 15.3667 22.3248 15.4 21.6748C15.4333 21.0248 15.5 20.2998 15.6 19.4998H7.6C7.36667 20.2998 7.20833 21.0165 7.125 21.6498C7.04167 22.2831 7 23.0331 7 23.8998C7 24.7665 7.04167 25.5415 7.125 26.2248C7.20833 26.9081 7.36667 27.6498 7.6 28.4498ZM18.65 28.4498H29.4C29.5333 27.4165 29.6167 26.5748 29.65 25.9248C29.6833 25.2748 29.7 24.5998 29.7 23.8998C29.7 23.2332 29.6833 22.5915 29.65 21.9748C29.6167 21.3582 29.5333 20.5331 29.4 19.4998H18.65C18.5167 20.5331 18.4333 21.3582 18.4 21.9748C18.3667 22.5915 18.35 23.2332 18.35 23.8998C18.35 24.5998 18.3667 25.2748 18.4 25.9248C18.4333 26.5748 18.5167 27.4165 18.65 28.4498ZM32.4 28.4498H40.4C40.6333 27.6498 40.7917 26.9081 40.875 26.2248C40.9583 25.5415 41 24.7665 41 23.8998C41 23.0331 40.9583 22.2831 40.875 21.6498C40.7917 21.0165 40.6333 20.2998 40.4 19.4998H32.45C32.55 20.6665 32.6167 21.5581 32.65 22.1748C32.6833 22.7915 32.7 23.3665 32.7 23.8998C32.7 24.6332 32.675 25.3248 32.625 25.9748C32.575 26.6248 32.5 27.4498 32.4 28.4498ZM31.9 16.4998H39.4C38.3 14.1998 36.7917 12.2831 34.875 10.7498C32.9583 9.21648 30.75 8.13315 28.25 7.49982C29.0833 8.73315 29.7917 10.0665 30.375 11.4998C30.9583 12.9332 31.4667 14.5998 31.9 16.4998ZM19.2 16.4998H28.9C28.5333 14.7332 27.9167 13.0248 27.05 11.3748C26.1833 9.72482 25.1667 8.26648 24 6.99982C22.9333 7.89982 22.0333 9.08315 21.3 10.5498C20.5667 12.0165 19.8667 13.9998 19.2 16.4998ZM8.6 16.4998H16.15C16.5167 14.6998 16.9833 13.0915 17.55 11.6748C18.1167 10.2582 18.8333 8.88315 19.7 7.54982C17.2 8.18315 15.0167 9.24982 13.15 10.7498C11.2833 12.2498 9.76667 14.1665 8.6 16.4998Z" fill="url(#paint0_linear_9_543)"/>
<defs>
<linearGradient id="paint0_linear_9_543" x1="-7.99999" y1="2.99982" x2="-7.99999" y2="42.9998" gradientUnits="userSpaceOnUse">
<stop stop-color="#35F26A"/>
<stop offset="1" stop-color="#068438"/>
</linearGradient>
</defs>
</svg>
