<svg width="382" height="54" viewBox="0 0 382 54" fill="none" xmlns="http://www.w3.org/2000/svg">
<path d="M46.192 52.2042H35.888L35.12 34.8602C34.9067 30.7215 34.8 27.0308 34.8 23.7882C34.8 21.3135 34.864 18.9668 34.992 16.7482L28.144 47.5322H18.224L10.928 16.7482C11.184 20.4602 11.312 23.9588 11.312 27.2442C11.312 29.7188 11.248 32.3002 11.12 34.9882L10.352 52.2042H0.112L3.44 7.85217H16.688L23.344 37.9322L29.552 7.85217H42.864L46.192 52.2042Z" fill="#141414"/>
<path d="M80.9525 52.2042H72.1845L71.7365 47.9162C69.2618 51.5002 65.8272 53.2922 61.4325 53.2922C58.3178 53.2922 55.9498 52.3535 54.3285 50.4762C52.7498 48.5988 51.9605 45.9748 51.9605 42.6042V18.2202H62.0725V41.3242C62.0725 42.9882 62.3285 44.1615 62.8405 44.8442C63.3952 45.4842 64.2272 45.8042 65.3365 45.8042C67.4698 45.8042 69.3045 44.4815 70.8405 41.8362V18.2202H80.9525V52.2042Z" fill="#141414"/>
<path d="M107.338 17.2602C108.575 17.2602 109.705 17.4095 110.729 17.7082L109.13 27.5002C107.85 27.2015 106.826 27.0522 106.058 27.0522C104.052 27.0522 102.516 27.7562 101.45 29.1642C100.426 30.5295 99.6148 32.5988 99.0175 35.3722V52.2042H88.9055V18.2202H97.7375L98.5695 24.8122C99.3375 22.4655 100.489 20.6308 102.025 19.3082C103.604 17.9428 105.375 17.2602 107.338 17.2602Z" fill="#141414"/>
<path d="M124.705 18.2202V52.2042H114.593V18.2202H124.705ZM119.585 0.300171C121.334 0.300171 122.764 0.854838 123.873 1.96417C125.025 3.03084 125.601 4.39617 125.601 6.06017C125.601 7.72417 125.025 9.11084 123.873 10.2202C122.764 11.2868 121.334 11.8202 119.585 11.8202C117.836 11.8202 116.406 11.2868 115.297 10.2202C114.188 9.11084 113.633 7.72417 113.633 6.06017C113.633 4.39617 114.188 3.03084 115.297 1.96417C116.406 0.854838 117.836 0.300171 119.585 0.300171Z" fill="#141414"/>
<path d="M141.68 53.2922C138.736 53.2922 136.432 52.4602 134.768 50.7962C133.146 49.0895 132.335 46.6788 132.335 43.5642V4.71617L142.447 3.62817V43.1802C142.447 44.5882 143.024 45.2922 144.176 45.2922C144.773 45.2922 145.327 45.1855 145.839 44.9722L147.824 52.1402C145.989 52.9082 143.941 53.2922 141.68 53.2922Z" fill="#141414"/>
<path d="M166.063 17.1322C171.268 17.1322 175.343 18.7322 178.287 21.9322C181.231 25.0895 182.703 29.5268 182.703 35.2442C182.703 38.8708 182.02 42.0495 180.655 44.7802C179.332 47.4682 177.412 49.5588 174.895 51.0522C172.42 52.5455 169.476 53.2922 166.063 53.2922C160.9 53.2922 156.826 51.7135 153.839 48.5562C150.895 45.3562 149.423 40.8975 149.423 35.1802C149.423 31.5535 150.084 28.3962 151.407 25.7082C152.772 22.9775 154.692 20.8655 157.167 19.3722C159.684 17.8788 162.65 17.1322 166.063 17.1322ZM166.063 24.5562C164.015 24.5562 162.479 25.4308 161.455 27.1802C160.431 28.8868 159.919 31.5535 159.919 35.1802C159.919 38.8922 160.41 41.6015 161.391 43.3082C162.415 45.0148 163.972 45.8682 166.063 45.8682C168.111 45.8682 169.647 45.0148 170.671 43.3082C171.695 41.5588 172.207 38.8708 172.207 35.2442C172.207 31.5322 171.695 28.8228 170.671 27.1162C169.69 25.4095 168.154 24.5562 166.063 24.5562Z" fill="#141414"/>
<path d="M232.706 7.85217V15.7882L213.441 43.8202H233.025L232.001 52.2042H201.089V44.3322L220.738 15.9802H203.074V7.85217H232.706Z" fill="#141414"/>
<path d="M248.83 18.2202V52.2042H238.718V18.2202H248.83ZM243.71 0.300171C245.459 0.300171 246.889 0.854838 247.998 1.96417C249.15 3.03084 249.726 4.39617 249.726 6.06017C249.726 7.72417 249.15 9.11084 247.998 10.2202C246.889 11.2868 245.459 11.8202 243.71 11.8202C241.961 11.8202 240.531 11.2868 239.422 10.2202C238.313 9.11084 237.758 7.72417 237.758 6.06017C237.758 4.39617 238.313 3.03084 239.422 1.96417C240.531 0.854838 241.961 0.300171 243.71 0.300171Z" fill="#141414"/>
<path d="M276.685 17.1322C279.629 17.1322 281.932 18.0282 283.596 19.8202C285.26 21.6122 286.092 24.1295 286.092 27.3722V52.2042H275.98V29.1002C275.98 27.3935 275.703 26.2202 275.148 25.5802C274.636 24.8975 273.847 24.5562 272.78 24.5562C270.732 24.5562 268.77 26.0282 266.892 28.9722V52.2042H256.78V18.2202H265.612L266.316 22.2522C267.767 20.5455 269.324 19.2655 270.988 18.4122C272.695 17.5588 274.594 17.1322 276.685 17.1322Z" fill="#141414"/>
<path d="M305.686 17.1322C308.118 17.1322 310.401 17.4948 312.534 18.2202C314.667 18.9455 316.545 19.9695 318.166 21.2922L314.454 26.9882C311.681 25.2388 308.886 24.3642 306.07 24.3642C304.747 24.3642 303.723 24.5988 302.998 25.0682C302.315 25.4948 301.974 26.1135 301.974 26.9242C301.974 27.5642 302.123 28.0975 302.422 28.5242C302.763 28.9082 303.425 29.3135 304.406 29.7402C305.387 30.1668 306.902 30.6788 308.95 31.2762C312.491 32.3002 315.115 33.6442 316.822 35.3082C318.571 36.9295 319.446 39.1908 319.446 42.0922C319.446 44.3962 318.785 46.4015 317.462 48.1082C316.139 49.7722 314.326 51.0522 312.022 51.9482C309.718 52.8442 307.158 53.2922 304.342 53.2922C301.483 53.2922 298.817 52.8442 296.342 51.9482C293.91 51.0522 291.841 49.8148 290.134 48.2362L295.062 42.7322C297.921 44.9508 300.929 46.0602 304.086 46.0602C305.622 46.0602 306.817 45.7828 307.67 45.2282C308.566 44.6735 309.014 43.8842 309.014 42.8602C309.014 42.0495 308.843 41.4095 308.502 40.9402C308.161 40.4708 307.499 40.0442 306.518 39.6602C305.537 39.2335 303.979 38.7215 301.846 38.1242C298.475 37.1428 295.958 35.7775 294.294 34.0282C292.63 32.2788 291.798 30.1028 291.798 27.5002C291.798 25.5375 292.353 23.7882 293.462 22.2522C294.614 20.6735 296.235 19.4362 298.326 18.5402C300.459 17.6015 302.913 17.1322 305.686 17.1322Z" fill="#141414"/>
<path d="M354.288 34.5402C354.288 35.9482 354.223 37.1642 354.095 38.1882H333.039C333.381 41.0468 334.191 43.0522 335.471 44.2042C336.751 45.3562 338.522 45.9322 340.784 45.9322C342.149 45.9322 343.471 45.6975 344.751 45.2282C346.031 44.7162 347.418 43.9482 348.911 42.9242L353.072 48.5562C349.104 51.7135 344.687 53.2922 339.823 53.2922C334.319 53.2922 330.095 51.6708 327.151 48.4282C324.207 45.1855 322.736 40.8335 322.736 35.3722C322.736 31.9162 323.354 28.8228 324.591 26.0922C325.829 23.3188 327.642 21.1428 330.031 19.5642C332.421 17.9428 335.28 17.1322 338.608 17.1322C343.514 17.1322 347.354 18.6682 350.128 21.7402C352.901 24.8122 354.288 29.0788 354.288 34.5402ZM344.367 31.6602C344.282 26.4548 342.447 23.8522 338.863 23.8522C337.114 23.8522 335.749 24.4922 334.767 25.7722C333.829 27.0522 333.253 29.1642 333.039 32.1082H344.367V31.6602Z" fill="#141414"/>
<path d="M378.4 17.2602C379.637 17.2602 380.768 17.4095 381.792 17.7082L380.192 27.5002C378.912 27.2015 377.888 27.0522 377.12 27.0522C375.115 27.0522 373.579 27.7562 372.512 29.1642C371.488 30.5295 370.677 32.5988 370.08 35.3722V52.2042H359.968V18.2202H368.8L369.632 24.8122C370.4 22.4655 371.552 20.6308 373.088 19.3082C374.667 17.9428 376.437 17.2602 378.4 17.2602Z" fill="#141414"/>
</svg>
